<?xml version="1.0" encoding="utf-8"?>
<!-- Generator: Adobe Illustrator 21.0.0, SVG Export Plug-In . SVG Version: 6.00 Build 0)  -->
<svg version="1.1"
	 id="图层_1" xmlns:cc="http://creativecommons.org/ns#" xmlns:dc="http://purl.org/dc/elements/1.1/" xmlns:rdf="http://www.w3.org/1999/02/22-rdf-syntax-ns#"
	 xmlns="http://www.w3.org/2000/svg" xmlns:xlink="http://www.w3.org/1999/xlink" x="0px" y="0px" viewBox="0 0 170 60"
	 style="enable-background:new 0 0 170 60;" xml:space="preserve">
<style type="text/css">
	.st0{fill:#FFFFFF;}
</style>
<path d="M6.3,0h157.4c3.5,0,6.3,2.8,6.3,6.3v47.4c0,3.5-2.8,6.3-6.3,6.3H6.3C2.8,60,0,57.2,0,53.7V6.3C0,2.8,2.8,0,6.3,0z"/>
<g>
	<path class="st0" d="M52,40V19c0-1.5-1.5-3-3-3H19c-1.5,0-3,1.5-3,3v21l-6,3v1.5c0,0,0,1.5,1.5,1.5h45c1.5,0,1.5-1.5,1.5-1.5V43
		L52,40z M49,37H19V19h30V37z"/>
</g>
<g>
	<polygon class="st0" points="96,21.5 93.3,21.5 90.9,24.2 89.8,25.5 89.8,25.5 89.9,23.5 89.9,18.1 87.5,18.1 87.5,30.3 89.9,30.3 
		89.9,27.5 90.9,26.7 93.5,30.3 96.2,30.3 92.5,25.3 	"/>
	<path class="st0" d="M62,18.8h-3.6v11.4h3.2c2,0,3.6-0.5,4.6-1.5c1.1-1,1.6-2.4,1.6-4.3c0-1.8-0.5-3.1-1.5-4.1
		C65.3,19.3,63.9,18.8,62,18.8z M61.9,28.3h-1v-7.4h1.3c2.2,0,3.3,1.2,3.3,3.7C65.4,27,64.2,28.3,61.9,28.3z"/>
	<path class="st0" d="M100.4,28.3c-0.2-0.2-0.3-0.4-0.3-0.8v-4.2h2.4v-1.8h-2.4v-1.9h-1.5l-0.7,1.8l-1.3,0.8v1h1.1v4.2
		c0,1,0.2,1.7,0.6,2.2c0.4,0.5,1.1,0.7,2.1,0.7c0.9,0,1.6-0.1,2.2-0.4v-1.8c-0.6,0.2-1.1,0.3-1.5,0.3
		C100.8,28.5,100.6,28.4,100.4,28.3z"/>
	<path class="st0" d="M132.2,21.3L132.2,21.3c-1.2,0-2.3,0.3-3.3,0.8l0.8,1.6c0.9-0.4,1.8-0.6,2.5-0.6c0.9,0,1.4,0.4,1.4,1.3v0.4
		l-1.5,0c-1.3,0-2.3,0.3-2.9,0.7c-0.6,0.4-1,1.1-1,2c0,0.9,0.2,1.6,0.7,2c0.5,0.5,1.2,0.7,2,0.7c0.7,0,1.2-0.1,1.7-0.3
		c0.4-0.2,0.8-0.5,1.2-1.1h0.1l0.5,1.2h1.7v-5.8c0-1-0.3-1.8-0.9-2.3C134.2,21.6,133.3,21.3,132.2,21.3z M133.4,26.9
		c0,0.5-0.2,0.9-0.5,1.3c-0.3,0.3-0.8,0.5-1.3,0.5c-0.8,0-1.2-0.3-1.2-1c0-0.5,0.2-0.8,0.5-1c0.3-0.2,0.9-0.4,1.6-0.4l0.9,0V26.9z"
		/>
	<path class="st0" d="M73.7,21.4c-1.3,0-2.3,0.4-3,1.2c-0.7,0.8-1.1,1.9-1.1,3.4c0,1.4,0.4,2.5,1.2,3.3s1.9,1.2,3.3,1.2
		c0.7,0,1.3-0.1,1.7-0.2c0.5-0.1,0.9-0.3,1.3-0.5v-1.8c-0.5,0.2-1,0.4-1.5,0.5c-0.5,0.1-1,0.2-1.5,0.2c-0.7,0-1.2-0.2-1.6-0.6
		c-0.4-0.4-0.6-0.9-0.6-1.6h5.6v-1.2c0-1.2-0.3-2.2-1-2.9C75.9,21.7,74.9,21.4,73.7,21.4z M72,24.9c0-0.6,0.2-1,0.5-1.4
		c0.3-0.3,0.7-0.5,1.2-0.5s0.9,0.2,1.2,0.5c0.3,0.3,0.5,0.8,0.5,1.4H72z"/>
	<path class="st0" d="M84.7,25.7c-0.3-0.2-0.8-0.5-1.5-0.8c-0.8-0.3-1.3-0.5-1.5-0.7c-0.2-0.2-0.3-0.3-0.3-0.6
		c0-0.4,0.4-0.6,1.1-0.6c0.4,0,0.8,0.1,1.2,0.2s0.8,0.3,1.2,0.5l0.7-1.7c-1-0.5-2-0.7-3.1-0.7c-1.1,0-2,0.2-2.6,0.6
		c-0.6,0.4-0.9,1-0.9,1.8c0,0.5,0.1,0.8,0.2,1.1c0.1,0.3,0.4,0.6,0.7,0.8c0.3,0.2,0.8,0.5,1.5,0.8c0.5,0.2,0.8,0.4,1.1,0.5
		c0.3,0.1,0.5,0.3,0.6,0.4c0.1,0.1,0.2,0.3,0.2,0.5c0,0.5-0.4,0.8-1.3,0.8c-0.4,0-0.9-0.1-1.5-0.2c-0.6-0.1-1-0.3-1.5-0.5v2
		c0.4,0.2,0.8,0.3,1.3,0.4c0.4,0.1,1,0.1,1.6,0.1c1.2,0,2.2-0.2,2.8-0.7c0.6-0.5,0.9-1.2,0.9-2c0-0.4-0.1-0.8-0.2-1.1
		C85.3,26.2,85,26,84.7,25.7z"/>
	<path class="st0" d="M110.3,21.9c-0.6-0.4-1.4-0.5-2.2-0.5c-1.3,0-2.4,0.4-3.1,1.2c-0.7,0.8-1.1,1.9-1.1,3.3c0,0.9,0.2,1.7,0.5,2.4
		c0.3,0.7,0.8,1.2,1.5,1.6c0.6,0.4,1.4,0.5,2.2,0.5c1.3,0,2.4-0.4,3.1-1.2s1.1-1.9,1.1-3.3c0-0.9-0.2-1.7-0.5-2.4
		C111.5,22.8,111,22.3,110.3,21.9z M109.5,27.8c-0.3,0.4-0.7,0.7-1.4,0.7c-0.6,0-1.1-0.2-1.4-0.7c-0.3-0.4-0.4-1.1-0.4-2
		c0-0.9,0.2-1.5,0.4-1.9c0.3-0.4,0.7-0.6,1.4-0.6c0.6,0,1.1,0.2,1.4,0.6c0.3,0.4,0.4,1.1,0.4,1.9C109.9,26.7,109.8,27.4,109.5,27.8z
		"/>
	<path class="st0" d="M119.2,21.4c-1.1,0-1.9,0.4-2.5,1.3h-0.1l-0.3-1.1h-1.9v12.6h2.4v-3.5c0-0.1,0-0.5-0.1-1.3h0.1
		c0.6,0.7,1.4,1.1,2.4,1.1c0.7,0,1.3-0.2,1.8-0.5c0.5-0.4,0.9-0.9,1.2-1.6c0.3-0.7,0.4-1.5,0.4-2.4c0-1.4-0.3-2.5-0.9-3.3
		C121,21.8,120.2,21.4,119.2,21.4z M118.4,28.5c-0.6,0-1-0.2-1.3-0.6c-0.3-0.4-0.4-1.1-0.4-2v-0.3c0-0.8,0.2-1.4,0.4-1.8
		c0.3-0.4,0.7-0.5,1.3-0.5c0.6,0,1,0.2,1.2,0.6c0.3,0.4,0.4,1.1,0.4,1.9C120,27.6,119.5,28.5,118.4,28.5z"/>
	<path class="st0" d="M143.1,21.4c-1.1,0-1.9,0.4-2.5,1.3h-0.1l-0.3-1.1h-1.9v12.6h2.4v-3.5c0-0.1,0-0.5-0.1-1.3h0.1
		c0.6,0.7,1.4,1.1,2.4,1.1c0.7,0,1.3-0.2,1.8-0.5c0.5-0.4,0.9-0.9,1.2-1.6c0.3-0.7,0.4-1.5,0.4-2.4c0-1.4-0.3-2.5-0.9-3.3
		C145,21.8,144.1,21.4,143.1,21.4z M142.4,28.5c-0.6,0-1-0.2-1.3-0.6c-0.3-0.4-0.4-1.1-0.4-2v-0.3c0-0.8,0.1-1.4,0.4-1.8
		c0.3-0.4,0.7-0.5,1.3-0.5h0c0.6,0,1,0.2,1.2,0.6c0.3,0.4,0.4,1.1,0.4,1.9C144,27.6,143.4,28.5,142.4,28.5z"/>
	<path class="st0" d="M155.7,22.5c-0.6-0.8-1.4-1.2-2.4-1.2h0c-1.1,0-1.9,0.4-2.5,1.3h-0.1l-0.3-1.1h-1.9v12.6h2.4v-3.5
		c0-0.1,0-0.5-0.1-1.3h0.1c0.6,0.7,1.4,1.1,2.4,1.1c0.7,0,1.3-0.2,1.8-0.5c0.5-0.4,0.9-0.9,1.2-1.6c0.3-0.7,0.4-1.5,0.4-2.4
		C156.5,24.5,156.2,23.3,155.7,22.5z M152.5,28.5c-0.6,0-1-0.2-1.3-0.6c-0.3-0.4-0.4-1.1-0.4-2v-0.3c0-0.8,0.1-1.4,0.4-1.8
		c0.3-0.4,0.7-0.5,1.3-0.5h0c0.6,0,1,0.2,1.2,0.6c0.3,0.4,0.4,1.1,0.4,1.9C154.1,27.6,153.6,28.5,152.5,28.5z"/>
</g>
<g>
	<path class="st0" d="M108.6,38.4l0,0.3l0,0.3h-0.1c-0.3-0.5-0.9-0.7-1.5-0.7c-0.6,0-1.1,0.2-1.5,0.7c-0.4,0.4-0.5,1.1-0.5,1.9
		c0,0.8,0.2,1.4,0.5,1.8c0.4,0.4,0.8,0.6,1.5,0.6c0.7,0,1.2-0.2,1.5-0.7h0l0.1,0.6h0.6v-6.8h-0.7V38.4z M108.6,41
		c0,0.6-0.1,1-0.3,1.3c-0.2,0.3-0.6,0.4-1.1,0.4c-0.4,0-0.8-0.2-1-0.5c-0.2-0.3-0.3-0.8-0.3-1.4c0-0.6,0.1-1.1,0.3-1.4
		c0.2-0.3,0.6-0.5,1-0.5c0.5,0,0.9,0.1,1.1,0.4c0.2,0.3,0.3,0.8,0.3,1.5V41z"/>
	<path class="st0" d="M97.9,36.6c-0.1,0-0.2,0-0.3,0.1c-0.1,0.1-0.1,0.2-0.1,0.4c0,0.2,0,0.3,0.1,0.4c0.1,0.1,0.2,0.1,0.3,0.1
		c0.1,0,0.2,0,0.3-0.1c0.1-0.1,0.1-0.2,0.1-0.4c0-0.2,0-0.3-0.1-0.4C98.1,36.7,98,36.6,97.9,36.6z"/>
	<path class="st0" d="M94.9,40.8c-0.2,0.6-0.3,1.1-0.3,1.5c-0.1-0.6-0.2-1.1-0.4-1.5L93,36.8h-0.8L91,40.7c-0.2,0.5-0.3,1-0.4,1.6
		c-0.1-0.5-0.2-1-0.3-1.5l-1-4h-0.8l1.7,6.4H91l1.3-4.3c0.1-0.5,0.2-0.9,0.3-1.3c0,0.1,0,0.2,0.1,0.5s0.1,0.5,0.2,0.7l1.3,4.3h0.7
		l1.7-6.4h-0.8L94.9,40.8z"/>
	<path class="st0" d="M102.1,38.3c-0.3,0-0.6,0.1-0.9,0.2c-0.3,0.1-0.5,0.3-0.6,0.5h0l-0.1-0.7h-0.6v4.8h0.7v-2.5
		c0-0.6,0.1-1.1,0.4-1.4c0.2-0.3,0.6-0.4,1.1-0.4c0.4,0,0.7,0.1,0.8,0.3c0.2,0.2,0.3,0.5,0.3,0.9v3.1h0.7v-3.1
		c0-0.6-0.1-1.1-0.4-1.3C103.1,38.5,102.7,38.3,102.1,38.3z"/>
	<path class="st0" d="M112.8,38.3c-0.7,0-1.2,0.2-1.6,0.7c-0.4,0.4-0.6,1-0.6,1.8c0,0.5,0.1,0.9,0.3,1.3c0.2,0.4,0.4,0.7,0.8,0.9
		c0.3,0.2,0.7,0.3,1.1,0.3c0.7,0,1.2-0.2,1.6-0.7c0.4-0.4,0.6-1.1,0.6-1.8c0-0.8-0.2-1.4-0.6-1.8C114,38.6,113.5,38.3,112.8,38.3z
		 M113.9,42.2c-0.2,0.3-0.6,0.5-1.1,0.5c-0.5,0-0.8-0.2-1.1-0.5c-0.2-0.3-0.4-0.8-0.4-1.4c0-0.6,0.1-1.1,0.4-1.4
		c0.2-0.3,0.6-0.5,1.1-0.5c0.5,0,0.8,0.2,1.1,0.5c0.2,0.3,0.4,0.8,0.4,1.4C114.3,41.5,114.2,41.9,113.9,42.2z"/>
	<path class="st0" d="M126.1,41.1c-0.2-0.2-0.6-0.4-1.2-0.6c-0.4-0.2-0.7-0.3-0.8-0.4c-0.1-0.1-0.3-0.2-0.3-0.3
		c-0.1-0.1-0.1-0.2-0.1-0.3c0-0.2,0.1-0.3,0.3-0.4c0.2-0.1,0.4-0.2,0.8-0.2c0.4,0,0.8,0.1,1.3,0.3l0.3-0.6c-0.5-0.2-1-0.3-1.5-0.3
		c-0.6,0-1,0.1-1.3,0.3c-0.3,0.2-0.5,0.5-0.5,0.9c0,0.2,0,0.4,0.1,0.6c0.1,0.2,0.2,0.3,0.4,0.4c0.2,0.1,0.5,0.3,1,0.4
		c0.5,0.2,0.8,0.3,0.9,0.5c0.2,0.1,0.2,0.3,0.2,0.5c0,0.2-0.1,0.4-0.3,0.6c-0.2,0.1-0.5,0.2-0.9,0.2c-0.2,0-0.5,0-0.8-0.1
		c-0.3-0.1-0.5-0.2-0.7-0.3V43c0.4,0.2,0.9,0.3,1.5,0.3c0.6,0,1.1-0.1,1.4-0.4c0.3-0.2,0.5-0.6,0.5-1
		C126.4,41.6,126.3,41.4,126.1,41.1z"/>
	<rect x="97.5" y="38.4" class="st0" width="0.7" height="4.8"/>
	<path class="st0" d="M120.8,42c0,0.2-0.1,0.4-0.1,0.5h0c-0.1-0.3-0.2-0.8-0.3-1.3l-0.9-2.8h-0.8l-0.9,2.8c-0.1,0.2-0.1,0.4-0.2,0.6
		c-0.1,0.3-0.1,0.5-0.2,0.6h0c0-0.2-0.1-0.6-0.3-1.3c-0.2-0.6-0.4-1.6-0.7-2.8h-0.8l1.3,4.8h0.8l0.9-2.8c0.1-0.3,0.2-0.7,0.3-1.2h0
		c0.2,0.6,0.3,1,0.3,1.2l0.9,2.8h0.9l1.3-4.8h-0.8C121.1,40.6,120.8,41.8,120.8,42z"/>
</g>
</svg>
