<?xml version="1.0" encoding="utf-8"?>
<!-- Generator: Adobe Illustrator 21.0.0, SVG Export Plug-In . SVG Version: 6.00 Build 0)  -->
<svg version="1.1" id="图层_1" xmlns="http://www.w3.org/2000/svg" xmlns:xlink="http://www.w3.org/1999/xlink" x="0px" y="0px"
	 viewBox="0 0 252 120" style="enable-background:new 0 0 252 120;" xml:space="preserve">
<style type="text/css">
	.st0{fill:#FFFFFF;}
</style>
<g>
	<path class="st0" d="M90.7,107.3l-0.2,0c-3.2,0.5-6.4,0.4-9.3-0.3c-2.9-0.6-5.6-1.9-7.9-3.5c-2.3-1.7-4.2-3.7-5.7-6.1
		c-1.5-2.3-2.3-4.9-2.7-7.6c-0.8-5.4,0.7-11,4.3-15c1.8-2,4-3.7,6.4-4.8c0.6-0.3,1.3-0.5,1.9-0.7c0.6-0.2,1.3-0.4,1.9-0.5
		c0.7-0.1,1.3-0.2,2-0.3l1-0.1l0.5,0c0.2,0,0.4,0,0.6,0c7.1,0,14,0.6,20.5,2.4c3.2,0.9,6.4,2.1,9.5,3.6c3.1,1.5,6.2,3.2,9.4,5.1
		c0.8,0.5,1.6,0.9,2.4,1.4c0.8,0.5,1.5,1,2.5,1.5c1.8,1,3.5,2.1,5.3,3c0.9,0.5,1.8,0.9,2.8,1.4l2.8,1.2c0.9,0.4,1.9,0.8,2.9,1.1
		c1,0.3,1.9,0.7,2.9,1c4,1.3,8.1,2.1,12.3,2.5c1.1,0.1,2.1,0.1,3.2,0.2c1.1,0,2.1,0,3.2-0.1c1.1-0.1,2.2-0.2,3.3-0.3
		c0.6-0.1,1.1-0.2,1.7-0.3c0.6-0.1,1.1-0.2,1.9-0.5c2.6-0.7,4.1-3.4,3.4-6s-3.4-4.1-6-3.4l0,0l-0.1,0l-0.2,0l-0.5,0
		c-0.4,0-0.8,0-1.1,0.1c-0.8,0-1.6,0-2.4,0c-0.8,0-1.6-0.1-2.5-0.2c-0.8-0.1-1.6-0.2-2.5-0.4c-3.3-0.6-6.6-1.5-9.7-2.8
		c-0.8-0.3-1.6-0.7-2.4-1c-0.8-0.3-1.6-0.7-2.3-1.1l-2.3-1.2l-2.2-1.3c-1.5-0.8-2.9-1.9-4.4-2.8c-0.7-0.5-1.5-1-2.3-1.6
		c-0.8-0.6-1.6-1.1-2.4-1.7c-3.3-2.2-6.7-4.3-10.3-6.2c-3.7-1.9-7.6-3.6-11.6-4.8c-4-1.3-8.2-2.2-12.3-2.7
		c-4.1-0.5-8.2-0.8-12.2-0.8c-0.3,0-0.5,0-0.8,0l-0.9,0l-1.8,0.1c-1.2,0.1-2.4,0.3-3.6,0.5c-1.2,0.3-2.4,0.6-3.6,0.9
		c-1.1,0.4-2.3,0.8-3.4,1.3c-4.5,2-8.5,5-11.7,8.6c-6.5,7.3-9.3,17.7-7.6,27.3c0.8,4.8,2.8,9.4,5.7,13.3c2.9,3.9,6.6,7.1,10.9,9.2
		c4.2,2.2,8.9,3.4,13.5,3.3c1.2,0,2.3,0,3.4-0.2c1.1-0.1,2.3-0.3,3.4-0.6c2.2-0.5,4.3-1.3,6.3-2.4c1.5-0.8,2.3-2.4,2.1-4.2
		C95,108.5,92.9,107,90.7,107.3z"/>
	<path class="st0" d="M201.9,81.4c-0.8-4.8-2.8-9.4-5.7-13.3c-2.9-3.9-6.6-7.1-10.9-9.2c-4.2-2.2-8.9-3.4-13.5-3.3
		c-1.2,0-2.3,0-3.4,0.2c-1.1,0.1-2.3,0.3-3.4,0.6c-2.2,0.5-4.3,1.3-6.3,2.4c-1.5,0.8-2.3,2.4-2.1,4.2c0.3,2.2,2.4,3.8,4.6,3.4l0.2,0
		c3.2-0.5,6.4-0.4,9.3,0.3c2.9,0.6,5.6,1.9,7.9,3.5c2.3,1.7,4.2,3.7,5.7,6.1c1.5,2.3,2.3,4.9,2.7,7.6c0.8,5.4-0.7,11-4.3,15
		c-1.8,2-4,3.7-6.4,4.8c-0.6,0.3-1.3,0.5-1.9,0.7c-0.6,0.2-1.3,0.4-1.9,0.5c-0.7,0.1-1.3,0.2-2,0.3l-1,0.1l-0.5,0
		c-0.2,0-0.4,0-0.6,0c-7.1,0-14-0.6-20.5-2.4c-3.2-0.9-6.4-2.1-9.5-3.6c-3.1-1.5-6.2-3.2-9.4-5.1c-0.8-0.5-1.6-0.9-2.4-1.4
		c-0.8-0.5-1.5-1-2.5-1.5c-1.8-1-3.5-2.1-5.3-3c-0.9-0.5-1.8-0.9-2.8-1.4l-2.8-1.2c-0.9-0.4-1.9-0.8-2.9-1.1c-1-0.3-1.9-0.7-2.9-1
		c-4-1.3-8.1-2.1-12.3-2.5C94.1,81,93.1,81,92,80.9c-1.1,0-2.1,0-3.2,0.1c-1.1,0.1-2.2,0.2-3.3,0.3c-0.6,0.1-1.1,0.2-1.7,0.3
		c-0.6,0.1-1.1,0.2-1.9,0.5c-2.6,0.7-4.1,3.4-3.4,6c0.7,2.6,3.4,4.1,6,3.4l0,0l0.1,0l0.2,0l0.5,0c0.4,0,0.8,0,1.1-0.1
		c0.8,0,1.6,0,2.4,0c0.8,0,1.6,0.1,2.5,0.2c0.8,0.1,1.6,0.2,2.5,0.4c3.3,0.6,6.6,1.5,9.7,2.8c0.8,0.3,1.6,0.7,2.4,1
		c0.8,0.3,1.6,0.7,2.3,1.1l2.3,1.2l2.2,1.3c1.5,0.8,2.9,1.9,4.4,2.8c0.7,0.5,1.5,1,2.3,1.6c0.8,0.6,1.6,1.1,2.4,1.7
		c3.3,2.2,6.7,4.3,10.3,6.2c3.7,1.9,7.6,3.6,11.6,4.8c4,1.3,8.2,2.2,12.3,2.7c4.1,0.5,8.2,0.8,12.2,0.8c0.3,0,0.5,0,0.8,0l0.9,0
		l1.8-0.1c1.2-0.1,2.4-0.3,3.6-0.5c1.2-0.3,2.4-0.6,3.6-0.9c1.1-0.4,2.3-0.8,3.4-1.3c4.5-2,8.5-5,11.7-8.6
		C200.7,101.3,203.5,90.9,201.9,81.4z"/>
	<path class="st0" d="M106,46.9l0.6,0.4c0.2,0.1,0.4,0.2,0.6,0.4c0.5,0.3,1,0.5,1.5,0.8c1,0.4,2,0.8,2.9,1c1.9,0.5,3.8,0.6,5.7,0.6
		c3.7-0.1,7.2-0.8,10.9-2.8c0.9-0.5,1.8-1.1,2.7-1.9c0.3-0.3,0.7-0.6,1-1c0.2-0.2,0.4-0.4,0.6-0.6c3.5-4.2,3.6-9.3,3.6-9.3l0,0
		c0-0.1,0-0.3,0-0.4c0-4.2-3.4-7.5-7.5-7.5c-4.2,0-7.5,3.4-7.5,7.5c0,1.3,0.3,2.6,0.9,3.7c-1.2,0.8-3.2,1.4-5,1.5
		c-1,0.1-1.9,0-2.7-0.2c-0.4-0.1-0.7-0.2-1-0.4c-0.1-0.1-0.3-0.1-0.4-0.2c0,0-0.2-0.1-0.3-0.2l-0.3-0.2c-1.5-1.2-2.3-1.9-2.9-3.6
		c-0.6-1.7-1-4.4-0.6-6.1c3.7-13.6,15.3-14.1,22.9-11.9c0.9,0.3,1.9,0.7,2.8,1.2c0.9,0.5,1.8,1.1,2.7,1.7c0.8,0.6,1.6,1.3,2.3,2
		c0.7,0.7,1.4,1.5,2,2.3c2.3,3.2,3.7,7.3,3.7,11.5c0.1,4.2-1.2,8.6-3.5,12.3l-0.1,0.2c-1.6,2.5-1.1,5.9,1.3,7.9
		c2.6,2.2,6.4,1.8,8.6-0.7c4.4-5.3,7.1-12,7.6-19.1c0.5-7-1.3-14.4-5.3-20.5c-2-3-4.5-5.7-7.4-7.9c-1.5-1.1-2.9-2-4.4-2.9
		c-1.6-0.9-3.2-1.6-4.9-2.3c-1.7-0.6-3.5-1.1-5.4-1.5c-1.8-0.3-3.7-0.5-5.6-0.5c-3.8,0-7.5,0.8-10.9,2.1c-3.4,1.3-6.6,3.2-9.3,5.5
		c-1.4,1.2-2.6,2.4-3.8,3.8c-0.6,0.7-1.1,1.4-1.6,2.1l-0.4,0.6l-0.4,0.6c-0.3,0.4-0.5,0.9-0.8,1.3c-3.8,6.9-3.9,15.6-0.3,22.4
		C100.2,41.9,102.9,44.8,106,46.9z"/>
</g>
</svg>
