<?xml version="1.0" encoding="utf-8"?>
<!-- Generator: Adobe Illustrator 21.0.0, SVG Export Plug-In . SVG Version: 6.00 Build 0)  -->
<svg version="1.1" id="图层_1" xmlns="http://www.w3.org/2000/svg" xmlns:xlink="http://www.w3.org/1999/xlink" x="0px" y="0px"
	 viewBox="0 0 16 16" style="enable-background:new 0 0 16 16;" xml:space="preserve">
<style type="text/css">
	.st0{filter:url(#a);}
	.st1{fill:#FFFFFF;}
	.st2{fill:none;stroke:#FFFFFF;stroke-width:2;}
	.st3{fill:#FF364E;}
</style>
<filter  color-interpolation-filters="sRGB" height="1.599" id="a" width="1.601" x="-.3" y="-.3">
	<feGaussianBlur  stdDeviation="1.239"></feGaussianBlur>
</filter>
<g class="st0">
	<polygon class="st1" points="12.9,11.5 11.5,13 8,9.4 4.5,12.9 3,11.5 6.6,8 3,4.5 4.5,3 8,6.6 11.5,3 12.9,4.5 9.4,8 	"/>
	<polygon class="st2" points="12.9,11.5 11.5,13 8,9.4 4.5,12.9 3,11.5 6.6,8 3,4.5 4.5,3 8,6.6 11.5,3 12.9,4.5 9.4,8 	"/>
</g>
<path class="st3" d="M12.9,11.5L11.5,13L8,9.4l-3.5,3.5L3,11.5L6.6,8L3,4.5L4.5,3L8,6.6L11.5,3l1.4,1.4L9.4,8L12.9,11.5z"/>
</svg>
